<?xml version="1.0" encoding="utf-8"?>
<!-- Generator: Adobe Illustrator 18.1.0, SVG Export Plug-In . SVG Version: 6.00 Build 0)  -->
<svg version="1.1" id="Layer_1" xmlns="http://www.w3.org/2000/svg" xmlns:xlink="http://www.w3.org/1999/xlink" x="0px" y="0px"
	 viewBox="0 0 81 21" enable-background="new 0 0 81 21" xml:space="preserve">
<g>
	<g>
		<path fill="#FFFFFF" d="M20,5.7c0,1.6-0.9,3.3-2.6,5l-7,6.7c-0.1,0.1-0.3,0.2-0.5,0.2s-0.4-0.1-0.5-0.2l-7-6.7
			c-0.1-0.1-0.2-0.2-0.3-0.3c-0.1-0.1-0.3-0.4-0.6-0.7C1.3,9.4,1.1,9,0.9,8.6C0.6,8.3,0.4,7.8,0.3,7.3C0.1,6.8,0,6.2,0,5.7
			c0-1.6,0.5-2.9,1.4-3.8C2.4,1,3.7,0.5,5.3,0.5c0.5,0,0.9,0.1,1.4,0.2c0.5,0.2,0.9,0.4,1.3,0.6c0.4,0.3,0.8,0.5,1.1,0.8
			C9.4,2.4,9.7,2.7,10,2.9c0.3-0.3,0.6-0.5,0.8-0.8c0.3-0.2,0.7-0.5,1.1-0.8c0.4-0.3,0.9-0.5,1.3-0.6c0.5-0.2,1-0.2,1.4-0.2
			c1.7,0,3,0.5,3.9,1.4C19.5,2.8,20,4.1,20,5.7z M18.6,5.7c0-0.6-0.1-1.1-0.2-1.6C18.2,3.7,18,3.3,17.7,3c-0.2-0.3-0.6-0.5-0.9-0.7
			c-0.4-0.2-0.7-0.3-1-0.3c-0.3-0.1-0.7-0.1-1.1-0.1c-0.4,0-0.8,0.1-1.2,0.3c-0.4,0.2-0.9,0.4-1.2,0.7c-0.4,0.3-0.7,0.6-1,0.8
			c-0.3,0.2-0.5,0.5-0.7,0.7c-0.1,0.2-0.3,0.2-0.5,0.2S9.6,4.6,9.5,4.4C9.3,4.2,9.1,4,8.8,3.7c-0.3-0.2-0.6-0.5-1-0.8
			C7.4,2.7,7,2.4,6.6,2.2C6.1,2,5.7,1.9,5.3,1.9C4.9,1.9,4.6,2,4.2,2c-0.3,0.1-0.7,0.2-1,0.3C2.8,2.5,2.5,2.8,2.3,3
			C2,3.3,1.8,3.7,1.7,4.1c-0.2,0.5-0.2,1-0.2,1.6c0,1.2,0.7,2.6,2.1,4L10,16l6.5-6.2C17.9,8.3,18.6,7,18.6,5.7z"/>
	</g>
	
		<text transform="matrix(1 0 0 1 30.2541 16.6579)" fill="#FFFFFF" font-family="'HelveticaNeue-UltraLight'" font-size="23" letter-spacing="1">SC</text>
</g>
</svg>
